<?xml version="1.0" standalone="no"?>
<svg xmlns="http://www.w3.org/2000/svg" viewBox="0 0 39.999 38" class="cGXD0i"><g data-name="Слой 2"><path fill="#e89531" d="M34.816,26.691a2.493,2.493,0,0,0-2.32-1.449,2.6,2.6,0,0,0-.969.2l-1.14.485c-.02-.071-.039-.129-.059-.2a2.518,2.518,0,0,0-2.316-1.461,2.652,2.652,0,0,0-.973.2l-3.34,1.39L15.77,29.168l-5.551-1.73c-.18.074-3.242,1.2-5.246,1.96l16.793,6.829,12.511-5.184-.75-1.172A2.378,2.378,0,0,0,34.816,26.691Z"></path><path fill="#ffb74d" d="M39.789,27.5a2.5,2.5,0,0,0-2.32-1.5,2.338,2.338,0,0,0-.969.211L27.988,29.93a4.189,4.189,0,0,1-.308,1.859,4.473,4.473,0,0,1-4.18,2.84c-.09,0-.191,0-.281-.008a4.455,4.455,0,0,1-1.379-.312l-.2-.079c-.293-.117-5.426-2.144-9.024-3.562a1,1,0,0,1,.762-1.844l1.785.7c.016,0,.027,0,.043.008,2.746,1.078,6.09,2.406,7.074,2.8l.094.035h0l.2.082A2.5,2.5,0,0,0,24.422,27.8c-.32-.125-7.91-3.145-10.539-4.141A10.583,10.583,0,0,0,10.5,23C6.977,23,2.156,24.836,0,25.75L3.375,34l3.77-1.551L20.57,37.82a2.508,2.508,0,0,0,.93.18,2.477,2.477,0,0,0,1-.211l16-7A2.494,2.494,0,0,0,39.789,27.5Z"></path><path fill="#ffc107" d="M31.95,9.99A9.99,9.99,0,1,1,21.96,0,9.992,9.992,0,0,1,31.95,9.99Z"></path><path fill="#fff8e1" d="M18.463,14.985V5h4.1a4.531,4.531,0,0,1,2.738.7,2.387,2.387,0,0,1,.932,2.04,2.283,2.283,0,0,1-.373,1.294,2.165,2.165,0,0,1-1.041.82,2.087,2.087,0,0,1,1.2.776,2.3,2.3,0,0,1,.44,1.426,2.645,2.645,0,0,1-.913,2.182,4.09,4.09,0,0,1-2.6.755Zm2-5.994h2.179c1.03-.018,1.547-.412,1.547-1.221a1.15,1.15,0,0,0-.392-.978,2.049,2.049,0,0,0-1.237-.3h-2.1Zm0,1.5v3h2.419c.48,0,1.576-.235,1.576-1.3s-.558-1.68-1.5-1.693Z"></path><path fill="#fff8e1" d="M19.962,3.5h1.5v2.5h-1.5Z"></path><path fill="#fff8e1" d="M22.459,3.5h1.5v2.5h-1.5Z"></path><path fill="#fff8e1" d="M19.962,13.986h1.5v2.5h-1.5Z"></path><path fill="#fff8e1" d="M22.459,13.986h1.5v2.5h-1.5Z"></path></g></svg>