<?xml version="1.0" standalone="no"?>
<svg xmlns="http://www.w3.org/2000/svg" viewBox="0 0 64 64" class="cHgBan"><g data-name="Layer 3"><path fill="#fcab68" d="M37,23H27a8,8,0,0,0-8,8v4H45V31A8,8,0,0,0,37,23Z"></path><path fill="#fff" d="M40.312,27a.994.994,0,0,1-.552-.167,5,5,0,0,0-1.094-.548,1,1,0,0,1,.668-1.885,7.024,7.024,0,0,1,1.533.767A1,1,0,0,1,40.312,27Z"></path><path fill="#ea8e49" d="M26,32a4,4,0,0,1-4-4h0a7.959,7.959,0,0,1,1.049-3.951A7.993,7.993,0,0,0,19,31v4H45V32Z"></path><path fill="#ffd3b6" d="M25,7H39a0,0,0,0,1,0,0v9a7,7,0,0,1-7,7h0a7,7,0,0,1-7-7V7A0,0,0,0,1,25,7Z"></path><path fill="#f9b995" d="M27,16V7H25v9a6.948,6.948,0,0,0,8,6.92A6.994,6.994,0,0,1,27,16Z"></path><path fill="#8e969b" d="M37,3h0a2,2,0,0,0-2-2H23V7a4,4,0,0,0,4,4h2.686a8,8,0,0,0,5.657-2.343L36,8h0a3,3,0,0,0,3,3h0V5a2,2,0,0,0-2-2Z"></path><path fill="#778084" d="M26,7V1H23V7a4,4,0,0,0,4,4h2.686c.071,0,.14-.009.211-.01A4,4,0,0,1,26,7Z"></path><path fill="#ffd3b6" d="M39,11h1a2,2,0,0,1,2,2v0a2,2,0,0,1-2,2H39a0,0,0,0,1,0,0V11A0,0,0,0,1,39,11Z"></path><path fill="#f9b995" d="M22,11h1a2,2,0,0,1,2,2v0a2,2,0,0,1-2,2H22a0,0,0,0,1,0,0V11A0,0,0,0,1,22,11Z" transform="rotate(-180 23.5 13)"></path><circle cx="8" cy="50" r="3" fill="#fcab68"></circle><path fill="#ea8e49" d="M7,50a2.99,2.99,0,0,1,2-2.816A2.962,2.962,0,0,0,8,47a3,3,0,0,0,0,6,2.962,2.962,0,0,0,1-.184A2.99,2.99,0,0,1,7,50Z"></path><path fill="#fcab68" d="M9,53H7a6,6,0,0,0-6,6v2a2,2,0,0,0,2,2H13a2,2,0,0,0,2-2V59A6,6,0,0,0,9,53Z"></path><path fill="#ea8e49" d="M8,60a4,4,0,0,1-4-4H4a5.974,5.974,0,0,1,.534-2.466A6,6,0,0,0,1,59v2a2,2,0,0,0,2,2H13a2,2,0,0,0,2-2V60Z"></path><circle cx="32" cy="50" r="3" fill="#fcab68"></circle><path fill="#fcab68" d="M33,53H31a6,6,0,0,0-6,6v2a2,2,0,0,0,2,2H37a2,2,0,0,0,2-2V59A6,6,0,0,0,33,53Z"></path><path fill="#ea8e49" d="M31,50a2.99,2.99,0,0,1,2-2.816A2.962,2.962,0,0,0,32,47a3,3,0,0,0,0,6,2.962,2.962,0,0,0,1-.184A2.99,2.99,0,0,1,31,50Z"></path><path fill="#ea8e49" d="M32,60a4,4,0,0,1-4-4h0a5.974,5.974,0,0,1,.534-2.466A6,6,0,0,0,25,59v2a2,2,0,0,0,2,2H37a2,2,0,0,0,2-2V60Z"></path><circle cx="56" cy="50" r="3" fill="#fcab68"></circle><path fill="#fcab68" d="M57,53H55a6,6,0,0,0-6,6v2a2,2,0,0,0,2,2H61a2,2,0,0,0,2-2V59A6,6,0,0,0,57,53Z"></path><path fill="#ea8e49" d="M55,50a2.99,2.99,0,0,1,2-2.816A2.962,2.962,0,0,0,56,47a3,3,0,0,0,0,6,2.962,2.962,0,0,0,1-.184A2.99,2.99,0,0,1,55,50Z"></path><path fill="#ea8e49" d="M56,60a4,4,0,0,1-4-4h0a5.974,5.974,0,0,1,.534-2.466A6,6,0,0,0,49,59v2a2,2,0,0,0,2,2H61a2,2,0,0,0,2-2V60Z"></path><path d="M19,36H45a1,1,0,0,0,1-1V31a9,9,0,0,0-1.2-4.5,1,1,0,1,0-1.731,1A7,7,0,0,1,44,31v3H42V29a1,1,0,0,0-2,0v5H24V29a1,1,0,0,0-2,0v5H20V31a7.008,7.008,0,0,1,7-7H37a7,7,0,0,1,3.391.875,1,1,0,0,0,.97-1.75,9,9,0,0,0-4.1-1.109A7.973,7.973,0,0,0,40,16a3,3,0,0,0,0-6V5a3,3,0,0,0-2.129-2.871A3,3,0,0,0,35,0H23a1,1,0,0,0-1,1V7a4.952,4.952,0,0,0,1.141,3.14A2.992,2.992,0,0,0,24,16a7.974,7.974,0,0,0,2.741,6.013A9,9,0,0,0,18,31v4A1,1,0,0,0,19,36ZM41,13a1,1,0,0,1-1,1V12A1,1,0,0,1,41,13ZM24,2H35a1,1,0,0,1,1,1,1,1,0,0,0,1,1,1,1,0,0,1,1,1V9.731A2,2,0,0,1,37,8a1,1,0,0,0-1.707-.708l-.657.658A6.954,6.954,0,0,1,29.687,10H27a3,3,0,0,1-3-3ZM23,13a1,1,0,0,1,1-1v2A1,1,0,0,1,23,13Zm3,3V11.9a5,5,0,0,0,1,.1h2.687a8.931,8.931,0,0,0,5.789-2.109A4.017,4.017,0,0,0,38,11.868V16a6,6,0,0,1-12,0Z"></path><circle cx="29" cy="14" r="1"></circle><circle cx="35" cy="14" r="1"></circle><path d="M11.21,52.363A3.964,3.964,0,0,0,12,50a4,4,0,0,0-8,0,3.964,3.964,0,0,0,.79,2.363A7.009,7.009,0,0,0,0,59v2a3,3,0,0,0,3,3H13a3,3,0,0,0,3-3V59A7.009,7.009,0,0,0,11.21,52.363ZM8,48a2,2,0,1,1-2,2A2,2,0,0,1,8,48Zm6,13a1,1,0,0,1-1,1H3a1,1,0,0,1-1-1V59a5.006,5.006,0,0,1,5-5H9a5.006,5.006,0,0,1,5,5Z"></path><path d="M35.21,52.363A3.964,3.964,0,0,0,36,50a4,4,0,0,0-8,0,3.964,3.964,0,0,0,.79,2.363A7.009,7.009,0,0,0,24,59v2a3,3,0,0,0,3,3H37a3,3,0,0,0,3-3V59A7.009,7.009,0,0,0,35.21,52.363ZM32,48a2,2,0,1,1-2,2A2,2,0,0,1,32,48Zm6,13a1,1,0,0,1-1,1H27a1,1,0,0,1-1-1V59a5.006,5.006,0,0,1,5-5h2a5.006,5.006,0,0,1,5,5Z"></path><path d="M59.21,52.363A3.964,3.964,0,0,0,60,50a4,4,0,0,0-8,0,3.964,3.964,0,0,0,.79,2.363A7.009,7.009,0,0,0,48,59v2a3,3,0,0,0,3,3H61a3,3,0,0,0,3-3V59A7.009,7.009,0,0,0,59.21,52.363ZM56,48a2,2,0,1,1-2,2A2,2,0,0,1,56,48Zm6,13a1,1,0,0,1-1,1H51a1,1,0,0,1-1-1V59a5.006,5.006,0,0,1,5-5h2a5.006,5.006,0,0,1,5,5Z"></path><path d="M14,51a1,1,0,0,0,.707-.293L25,40.414V41a1,1,0,0,0,2,0V38a1,1,0,0,0-1-1H23a1,1,0,0,0,0,2h.586L13.293,49.293A1,1,0,0,0,14,51Z"></path><path d="M32,45a1,1,0,0,0,1-1V40.414l.293.293a1,1,0,0,0,1.414-1.414l-2-2a.99.99,0,0,0-.326-.217,1,1,0,0,0-.764,0,.99.99,0,0,0-.326.217l-2,2a1,1,0,0,0,1.414,1.414L31,40.414V44A1,1,0,0,0,32,45Z"></path><path d="M41,39a1,1,0,0,0,0-2H38a1,1,0,0,0-1,1v3a1,1,0,0,0,2,0v-.586L49.293,50.707a1,1,0,0,0,1.414-1.414L40.414,39Z"></path></g></svg>