<?xml version="1.0" standalone="no"?>
<svg xmlns="http://www.w3.org/2000/svg" viewBox="0 0 48 48" class="cqwzYn"><path fill="#1b5e20" d="M17.7,26C16,24.3,7.9,21.5,5,22.3c1.4,3.9,3.3,4.5,7,9.4c1.5,2,4.4,1.9,6,0.3S18.8,27.1,17.7,26z"></path><path fill="#2e7d32" d="M18,33c-0.6,0-1-0.4-1-1v-8c0-5.2,2-9.9,5.4-12.8c0.4-0.4,1.1-0.3,1.4,0.1c0.4,0.4,0.3,1.1-0.1,1.4 c-3,2.5-4.6,6.6-4.6,11.3v8C19,32.6,18.6,33,18,33z"></path><path fill="#e57373" d="M33 16c0 0 1 3 4.8 3H40c1.1 0 2-.9 2-2.1-.1-1.6-.8-3.8-4.2-4.9C32 10 32 10 32 10L33 16zM31.1 16c0 0-.9 3-4.4 3H25c-1.1 0-2-.9-2-2.1 0-1.6.7-3.8 3.8-4.9 5.2-2 5.2-2 5.2-2L31.1 16z"></path><path fill="#e57373" d="M28,8.8V5.5C28,3.7,31,0,32,0s4,3.7,4,5.5v3.3L32,11L28,8.8z"></path><path fill="#ef9a9a" d="M30,12.1c-5.1,2.3-5.1,2.3-7.1,1.2c-1.4-0.8-2.3-3.7-2.8-5.5c-0.2-0.9,0.2-1.8,1-2.2 C22.2,4.8,24,4,25.9,4c3.1,0,5.1,6,5.1,6s1,1.3,2,0c0,0,2-6,5.1-6C40,4,41.8,4.8,43,5.5c0.8,0.4,1.2,1.3,1,2.2 c-0.4,1.8-1.4,4.7-2.8,5.5c-2,1.2-2,1.2-7.1-1.2c0,0-1-0.3-2-0.3S30,12.1,30,12.1z"></path><path fill="#b71c1c" d="M34.2,11.4c0.3-0.3,1.3,0.1,1.3,0.1c2-2.8-2.3-4.3-2.3-4.3s-1.7-0.7-0.3,0.6c1.5,1.5-0.9,2.3-0.9,2.3 s-2.4-0.8-0.9-2.3c1.4-1.4-0.3-0.6-0.3-0.6s-4.3,1.4-2.3,4.3c0,0,1-0.4,1.3-0.1c0.3,0.3-1.4,0.7-1.4,0.7S30,14,32,15 c2-1,3.6-2.9,3.6-2.9S33.9,11.7,34.2,11.4z"></path><path fill="#fff8e1" d="M32 9A1 1.5 0 1 0 32 12A1 1.5 0 1 0 32 9Z"></path><path fill="#8d6e63" d="M24.8 48L11.3 48 9 32 27 32z"></path><path fill="#6d4c41" d="M28 35L8 35 9 32 27 32z"></path></svg>