<?xml version="1.0" standalone="no"?>
<svg xmlns="http://www.w3.org/2000/svg" viewBox="0 0 128 128" class="cz00k6"><path fill="#ffa233" d="M117.691,125.5H10.309a1.994,1.994,0,0,1-1.975-2.334C10.986,108.852,24.32,95.24,24.32,95.24h79.36s13.334,13.612,15.986,27.926A1.994,1.994,0,0,1,117.691,125.5Z"></path><path fill="#ffc25f" d="M114.167,54.417C106.4,33.589,89.879,19.764,73.542,15c-.964-.281,2.681-2.72,1.125-4.625-1.62-1.983-7.155-1.362-9.818,2.848a1,1,0,0,1-1.7,0c-2.663-4.21-8.2-4.831-9.818-2.848-1.556,1.9,2.089,4.344,1.125,4.625C38.121,19.764,21.6,33.589,13.833,54.417c-.841,2.255-3.506,6.506-6.23,8.342a.994.994,0,0,0-.233,1.462,5.273,5.273,0,0,0,3.962,1.85,1,1,0,0,1,.964,1.017c-.257,21.749,21.686,45.034,50.036,42.585a19.357,19.357,0,0,1,3.336,0c28.35,2.449,50.293-20.836,50.036-42.585a1,1,0,0,1,.964-1.017,5.273,5.273,0,0,0,3.962-1.85.993.993,0,0,0-.234-1.462C117.673,60.923,115.008,56.672,114.167,54.417Z"></path><path fill="#ff7110" d="M45.6,76.5a5.015,5.015,0,0,0,1.53,7.047C50.3,85.448,55.7,87.564,64,87.564s13.7-2.116,16.874-4.018A5.015,5.015,0,0,0,82.4,76.5C79.585,72.176,73.826,65.971,64,65.971S48.415,72.176,45.6,76.5Z"></path><path fill="#332c44" d="M63.962,77.284c-5.788,0-11.563-.278-17.287-.834a1.5,1.5,0,0,1,.29-2.986,177.339,177.339,0,0,0,34.071,0,1.5,1.5,0,1,1,.287,2.986C75.551,77.006,69.75,77.284,63.962,77.284Z"></path><path fill="#fff" d="M51.7,48.164a1.852,1.852,0,0,0-1.129-2.347,5.544,5.544,0,0,0-2.044-.17,1.124,1.124,0,0,0-.832,1.915,5.557,5.557,0,0,0,1.519,1.379A1.853,1.853,0,0,0,51.7,48.164Z"></path><path fill="#fff" d="M76.3,48.164a1.852,1.852,0,0,1,1.129-2.347,5.544,5.544,0,0,1,2.044-.17,1.124,1.124,0,0,1,.832,1.915,5.557,5.557,0,0,1-1.519,1.379A1.853,1.853,0,0,1,76.3,48.164Z"></path><path fill="#ffd9e2" d="M90.52,125.5H37.48a34.685,34.685,0,0,1,53.04,0Z"></path><circle cx="77.878" cy="61.08" r="2.83" fill="#332c44"></circle><path fill="#332c44" d="M64,89.064c-8.744,0-14.421-2.3-17.645-4.231a6.323,6.323,0,0,1-2.927-4.043,6.661,6.661,0,0,1,.911-5.11h0C47.07,71.494,53.255,64.471,64,64.471S80.93,71.494,83.661,75.68a6.661,6.661,0,0,1,.911,5.11,6.323,6.323,0,0,1-2.927,4.043C78.421,86.763,72.744,89.064,64,89.064ZM46.852,77.318a3.647,3.647,0,0,0-.5,2.8A3.343,3.343,0,0,0,47.9,82.259c2.9,1.736,8.045,3.8,16.1,3.8s13.2-2.069,16.1-3.8a3.345,3.345,0,0,0,1.544-2.143,3.647,3.647,0,0,0-.5-2.8c-2.93-4.492-8.284-9.847-17.148-9.847s-14.218,5.355-17.148,9.847Z"></path><path fill="#332c44" d="M69.83,111.353q-2.135,0-4.291-.186a17.976,17.976,0,0,0-3.078,0A47.774,47.774,0,0,1,25.35,98.339c-9.045-8.426-14.4-19.9-14.388-30.781A7.088,7.088,0,0,1,8,66.677a3.491,3.491,0,0,1-.537-5.7,20.709,20.709,0,0,0,4.961-7.086C19.487,34.961,34.7,19.852,52.391,14.069c-.748-1.146-1.59-2.965-.219-4.643a5.33,5.33,0,0,1,4.572-1.619,9.985,9.985,0,0,1,7.256,4,9.986,9.986,0,0,1,7.256-4,5.347,5.347,0,0,1,4.572,1.619c1.371,1.678.529,3.5-.219,4.643,17.69,5.783,32.9,20.892,39.963,39.824a20.718,20.718,0,0,0,4.963,7.088A3.49,3.49,0,0,1,120,66.675a7.1,7.1,0,0,1-2.961.883c.011,10.883-5.344,22.358-14.39,30.784A47.745,47.745,0,0,1,69.83,111.353ZM64,108.1c.6,0,1.2.025,1.8.076A44.808,44.808,0,0,0,100.6,96.147c8.566-7.98,13.587-18.826,13.431-29.014a2.523,2.523,0,0,1,2.452-2.549h0a4.282,4.282,0,0,0,2.032-.518.489.489,0,0,0,.076-.8,23.546,23.546,0,0,1-5.834-8.328c-6.953-18.647-22.141-33.4-39.639-38.5a1.7,1.7,0,0,1-1.156-1.083,2.56,2.56,0,0,1,.746-2.38c.329-.449,1.014-1.383.793-1.653a2.641,2.641,0,0,0-2.068-.523,6.93,6.93,0,0,0-5.319,3.222,2.5,2.5,0,0,1-4.236,0A6.931,6.931,0,0,0,56.563,10.8a2.635,2.635,0,0,0-2.068.523c-.221.27.464,1.2.793,1.653a2.56,2.56,0,0,1,.746,2.38,1.7,1.7,0,0,1-1.155,1.083c-17.5,5.1-32.688,19.854-39.64,38.5a23.548,23.548,0,0,1-5.832,8.327.493.493,0,0,0,.075.8,4.3,4.3,0,0,0,2.035.517,2.515,2.515,0,0,1,2.449,2.543C13.808,77.316,18.828,88.164,27.4,96.144A44.806,44.806,0,0,0,62.2,108.178C62.8,108.127,63.4,108.1,64,108.1Zm52.563-40.519h0Z"></path><path fill="#332c44" d="M117.691,127H10.309a3.509,3.509,0,0,1-2.7-1.27,3.445,3.445,0,0,1-.746-2.838C9.564,108.3,22.692,94.76,23.249,94.191a1.5,1.5,0,0,1,2.144,2.1c-.13.133-13.048,13.464-15.584,27.149a.446.446,0,0,0,.1.374.52.52,0,0,0,.4.187H117.691a.52.52,0,0,0,.4-.187.446.446,0,0,0,.1-.374c-2.54-13.7-15.453-27.016-15.584-27.148a1.5,1.5,0,0,1,2.144-2.1c.557.569,13.685,14.107,16.391,28.7a3.445,3.445,0,0,1-.746,2.838A3.509,3.509,0,0,1,117.691,127Z"></path><circle cx="47.788" cy="64.434" r="12.757" fill="#ffe9ee"></circle><path fill="#332c44" d="M47.789,78.691A14.258,14.258,0,1,1,62.046,64.434,14.274,14.274,0,0,1,47.789,78.691Zm0-25.515A11.258,11.258,0,1,0,59.046,64.434,11.27,11.27,0,0,0,47.789,53.176Z"></path><path fill="#332c44" d="M25.691,114c-5.506,0-10.253-3.993-10.806-9.09-.605-5.57-.759-21.815-.765-22.5a1.5,1.5,0,0,1,1.486-1.514,1.531,1.531,0,0,1,1.514,1.486c0,.168.158,16.785.747,22.206.391,3.6,3.827,6.415,7.824,6.415a7.981,7.981,0,0,0,7.972-7.972V66.086a1.5,1.5,0,0,1,3,0v36.942A10.984,10.984,0,0,1,25.691,114Z"></path><circle cx="48.122" cy="61.08" r="4.253" fill="#332c44"></circle></svg>