<?xml version="1.0" standalone="no"?>
<svg xmlns="http://www.w3.org/2000/svg" viewBox="0 0 64 64" class="czuHxJ"><g data-name="Layer 31"><rect width="36" height="46" x="21" y="9" fill="#f8c460" rx="2"></rect><path fill="#eaac47" d="M56,52q-1.564,0-3.092-.148A17.847,17.847,0,0,1,37,33.973V25a2,2,0,0,0-2-2H26.019a1.992,1.992,0,0,1-2-1.9C24.007,20.734,24,9,24,9H23a2,2,0,0,0-2,2V53a2,2,0,0,0,2,2H55a2,2,0,0,0,2-2V52Z"></path><rect width="34" height="30" x="1" y="25" fill="#f8c460" rx="2"></rect><path fill="#f97878" d="M14,25h8a0,0,0,0,1,0,0V37a2,2,0,0,1-2,2H16a2,2,0,0,1-2-2V25A0,0,0,0,1,14,25Z"></path><path fill="#f97878" d="M35,9h8a0,0,0,0,1,0,0V21a2,2,0,0,1-2,2H37a2,2,0,0,1-2-2V9A0,0,0,0,1,35,9Z"></path><path fill="#eaac47" d="M29,31a2,2,0,0,0-2,2V46.85a4.006,4.006,0,0,1-5.274,3.8A26,26,0,0,1,4,26V25H3a2,2,0,0,0-2,2V53a2,2,0,0,0,2,2H33a2,2,0,0,0,2-2V31Z"></path><rect width="6" height="4" x="23" y="47" fill="#f97878"></rect><rect width="34" height="24" x="29" y="31" fill="#f8c460" rx="2"></rect><path fill="#eaac47" d="M52,52A20,20,0,0,1,32,32V31H31a2,2,0,0,0-2,2V53a2,2,0,0,0,2,2H61a2,2,0,0,0,2-2V52Z"></path><path fill="#f97878" d="M42,31h8a0,0,0,0,1,0,0v8a2,2,0,0,1-2,2H44a2,2,0,0,1-2-2V31A0,0,0,0,1,42,31Z"></path><rect width="8" height="4" x="51" y="47" fill="#f97878"></rect><path d="M21,22a1,1,0,0,0,1-1V11a1,1,0,0,1,1-1H34V21a3,3,0,0,0,3,3h4a3,3,0,0,0,3-3V10H55a1,1,0,0,1,1,1v4a1,1,0,0,0,2,0V11a3,3,0,0,0-3-3H23a3,3,0,0,0-3,3V21A1,1,0,0,0,21,22ZM42,10V21a1,1,0,0,1-1,1H37a1,1,0,0,1-1-1V10Z"></path><path d="M61,30H58V19a1,1,0,0,0-2,0V30H31a3,3,0,0,0-3,3V46H23a1,1,0,0,0-1,1v4a1,1,0,0,0,1,1h5v1a2.966,2.966,0,0,0,.184,1H3a1,1,0,0,1-1-1V27a1,1,0,0,1,1-1H13V37a3,3,0,0,0,3,3h4a3,3,0,0,0,3-3V26H33a1,1,0,0,1,1,1,1,1,0,0,0,2,0,3,3,0,0,0-3-3H3a3,3,0,0,0-3,3V53a3,3,0,0,0,3,3H61a3,3,0,0,0,3-3V33A3,3,0,0,0,61,30ZM21,26V37a1,1,0,0,1-1,1H16a1,1,0,0,1-1-1V26Zm28,6v7a1,1,0,0,1-1,1H44a1,1,0,0,1-1-1V32ZM24,50V48h4v2Zm38,3a1,1,0,0,1-1,1H31a1,1,0,0,1-1-1V33a1,1,0,0,1,1-1H41v7a3,3,0,0,0,3,3h4a3,3,0,0,0,3-3V32H61a1,1,0,0,1,1,1Z"></path><path d="M59,46H51a1,1,0,0,0-1,1v4a1,1,0,0,0,1,1h8a1,1,0,0,0,1-1V47A1,1,0,0,0,59,46Zm-1,4H52V48h6Z"></path><path fill="#fff" d="M55,12H52a1,1,0,0,1,0-2h3a1,1,0,0,1,0,2Z"></path></g></svg>