<?xml version="1.0" encoding="UTF-8"?>
<!-- Creator: CorelDRAW -->
<svg xmlns="http://www.w3.org/2000/svg" xmlns:xlink="http://www.w3.org/1999/xlink" xmlns:xodm="http://www.corel.com/coreldraw/odm/2003" xml:space="preserve" width="100px" height="27px" version="1.1" style="shape-rendering:geometricPrecision; text-rendering:geometricPrecision; image-rendering:optimizeQuality; fill-rule:evenodd; clip-rule:evenodd" viewBox="0 0 108.44 29.28">
 <defs>
  <style type="text/css">
   <![CDATA[
    .fil1 {fill:#685535}
    .fil0 {fill:#E6C891}
    .fil2 {fill:#E6C891;fill-rule:nonzero}
   ]]>
  </style>
 </defs>
 <g id="Layer_x0020_1">
  <metadata id="CorelCorpID_0Corel-Layer"></metadata>
  <ellipse class="fil0" cx="15.79" cy="14.64" rx="12.53" ry="11.97"></ellipse>
  <path class="fil1" d="M22.85 13.41c-0.32,-0.32 -0.77,-0.52 -1.26,-0.52 -0.72,0 -1.34,0.42 -1.63,1.03 -0.13,0.3 -0.49,0.42 -0.78,0.29 -0.3,-0.14 -0.43,-0.5 -0.29,-0.79 0.48,-1.02 1.5,-1.72 2.7,-1.72 0.82,0 1.56,0.33 2.1,0.87 0.23,0.23 0.23,0.61 0,0.84 -0.23,0.23 -0.61,0.23 -0.84,0zm-4.36 3.92c0.14,-0.3 0.49,-0.42 0.79,-0.29 0.29,0.14 0.42,0.5 0.28,0.79 -0.62,1.34 -1.97,2.26 -3.54,2.26 -1.57,0 -2.93,-0.92 -3.55,-2.26 -0.14,-0.29 -0.01,-0.65 0.29,-0.79 0.29,-0.13 0.65,-0.01 0.79,0.29 0.43,0.93 1.37,1.58 2.47,1.58 1.09,0 2.04,-0.65 2.47,-1.58zm-8.03 -6.14c0.92,0 1.66,0.75 1.66,1.66 0,0.92 -0.74,1.66 -1.66,1.66 -0.91,0 -1.65,-0.74 -1.65,-1.66 0,-0.91 0.74,-1.66 1.65,-1.66zm6.51 18.09c8.03,0 14.61,-6.59 14.61,-14.62 0,-8.07 -6.58,-14.66 -14.61,-14.66l-2.36 0c-8.07,0 -14.61,6.59 -14.61,14.66 0,8.03 6.54,14.62 14.61,14.62l2.36 0zm0 -24.38c5.34,0 9.71,4.43 9.71,9.76 0,5.34 -4.37,9.71 -9.71,9.71l-2.36 0c-5.33,0 -9.71,-4.37 -9.71,-9.71 0,-5.33 4.38,-9.76 9.71,-9.76l2.36 0z"></path>
  <path class="fil1" d="M30.74 4.72l67.78 0c5.45,0 9.92,4.46 9.92,9.92 0,5.45 -4.47,9.92 -9.92,9.92l-67.77 0c2.01,-2.8 3.2,-6.21 3.2,-9.9 0,-3.7 -1.19,-7.14 -3.21,-9.94z"></path>
  <path class="fil2" d="M47.09 16.96l0 0.7c0,0.35 -0.06,0.69 -0.19,0.99 -0.15,0.32 -0.32,0.61 -0.56,0.85 -0.24,0.24 -0.52,0.43 -0.82,0.58 -0.32,0.16 -0.66,0.22 -1.02,0.22 -0.31,0 -0.63,-0.05 -0.95,-0.13 -0.32,-0.08 -0.61,-0.24 -0.86,-0.45 -0.26,-0.2 -0.47,-0.49 -0.63,-0.83 -0.17,-0.33 -0.25,-0.75 -0.25,-1.28l0 -6.27c0,-0.37 0.06,-0.72 0.19,-1.04 0.13,-0.32 0.3,-0.59 0.54,-0.83 0.24,-0.24 0.52,-0.42 0.85,-0.56 0.32,-0.13 0.67,-0.2 1.07,-0.2 0.77,0 1.4,0.26 1.88,0.76 0.24,0.24 0.41,0.52 0.56,0.86 0.13,0.34 0.19,0.7 0.19,1.1l0 0.64 -1.63 0 0 -0.54c0,-0.32 -0.1,-0.59 -0.28,-0.83 -0.17,-0.24 -0.43,-0.35 -0.73,-0.35 -0.4,0 -0.67,0.12 -0.8,0.36 -0.15,0.26 -0.21,0.58 -0.21,0.96l0 5.83c0,0.34 0.08,0.61 0.22,0.83 0.15,0.23 0.4,0.34 0.77,0.34 0.11,0 0.23,-0.02 0.35,-0.07 0.12,-0.03 0.23,-0.09 0.34,-0.17 0.1,-0.08 0.18,-0.21 0.24,-0.35 0.06,-0.15 0.1,-0.34 0.1,-0.56l0 -0.56 1.63 0z"></path>
  <path id="_1" class="fil2" d="M48.32 20.21l0 -11.4 1.63 0 0 4.06 0.04 0c0.17,-0.25 0.38,-0.46 0.62,-0.64 0.24,-0.16 0.54,-0.24 0.91,-0.24 0.21,0 0.4,0.04 0.61,0.1 0.21,0.08 0.39,0.19 0.55,0.35 0.16,0.16 0.28,0.37 0.38,0.61 0.1,0.26 0.14,0.56 0.14,0.93l0 6.23 -1.63 0 0 -5.62c0,-0.31 -0.06,-0.53 -0.21,-0.71 -0.14,-0.17 -0.33,-0.25 -0.59,-0.25 -0.3,0 -0.53,0.09 -0.64,0.28 -0.11,0.2 -0.18,0.47 -0.18,0.84l0 5.46 -1.63 0z"></path>
  <path id="_2" class="fil2" d="M54.55 20.21l0 -8.12 1.63 0 0 8.12 -1.63 0zm0 -9.77l0 -1.63 1.63 0 0 1.63 -1.63 0z"></path>
  <path id="_3" class="fil2" d="M60.61 20.21l0 -0.84 -0.03 0c-0.21,0.31 -0.43,0.53 -0.64,0.69 -0.22,0.16 -0.53,0.24 -0.93,0.24 -0.19,0 -0.38,-0.03 -0.57,-0.08 -0.21,-0.06 -0.4,-0.17 -0.58,-0.34 -0.18,-0.14 -0.32,-0.36 -0.43,-0.65 -0.11,-0.27 -0.18,-0.64 -0.18,-1.09 0,-0.46 0.03,-0.86 0.11,-1.22 0.08,-0.33 0.21,-0.62 0.42,-0.86 0.19,-0.22 0.45,-0.4 0.79,-0.51 0.33,-0.11 0.75,-0.16 1.26,-0.16 0.05,0 0.11,0 0.18,0 0.06,0 0.12,0 0.17,0.01 0.05,0.02 0.11,0.02 0.19,0.02 0.08,0 0.16,0 0.24,0.02l0 -0.85c0,-0.28 -0.06,-0.52 -0.17,-0.69 -0.11,-0.18 -0.34,-0.27 -0.64,-0.27 -0.21,0 -0.4,0.06 -0.58,0.2 -0.17,0.15 -0.3,0.34 -0.35,0.61l-1.59 0c0.05,-0.72 0.29,-1.31 0.74,-1.76 0.21,-0.21 0.47,-0.38 0.77,-0.51 0.3,-0.11 0.64,-0.18 1.01,-0.18 0.33,0 0.65,0.05 0.96,0.16 0.3,0.12 0.56,0.28 0.78,0.48 0.21,0.21 0.39,0.48 0.51,0.8 0.13,0.32 0.2,0.69 0.2,1.13l0 5.65 -1.64 0zm0 -3.49c-0.17,-0.04 -0.33,-0.05 -0.44,-0.05 -0.36,0 -0.66,0.08 -0.9,0.24 -0.26,0.17 -0.38,0.48 -0.38,0.91 0,0.3 0.08,0.56 0.22,0.75 0.14,0.19 0.35,0.29 0.62,0.29 0.28,0 0.5,-0.1 0.66,-0.27 0.14,-0.18 0.22,-0.43 0.22,-0.77l0 -1.1z"></path>
  <path id="_4" class="fil2" d="M69.39 14.36c-0.02,-0.27 -0.1,-0.48 -0.26,-0.62 -0.18,-0.15 -0.37,-0.21 -0.58,-0.21 -0.25,0 -0.45,0.08 -0.59,0.24 -0.14,0.18 -0.21,0.37 -0.21,0.58 0,0.14 0.03,0.29 0.11,0.43 0.08,0.14 0.28,0.29 0.58,0.4l0.96 0.38c0.61,0.24 1.03,0.56 1.27,0.96 0.22,0.4 0.33,0.85 0.33,1.33 0,0.34 -0.06,0.66 -0.17,0.95 -0.13,0.3 -0.31,0.56 -0.52,0.78 -0.2,0.22 -0.46,0.4 -0.76,0.53 -0.31,0.13 -0.63,0.19 -0.98,0.19 -0.66,0 -1.22,-0.21 -1.67,-0.62 -0.22,-0.21 -0.4,-0.47 -0.54,-0.77 -0.14,-0.31 -0.21,-0.66 -0.22,-1.06l1.53 0c0.03,0.23 0.11,0.43 0.24,0.63 0.11,0.19 0.34,0.28 0.64,0.28 0.24,0 0.45,-0.08 0.64,-0.24 0.18,-0.14 0.27,-0.36 0.27,-0.64 0,-0.22 -0.06,-0.41 -0.17,-0.57 -0.11,-0.16 -0.34,-0.31 -0.64,-0.42l-0.79 -0.29c-0.51,-0.19 -0.91,-0.48 -1.2,-0.86 -0.3,-0.37 -0.44,-0.83 -0.44,-1.38 0,-0.33 0.06,-0.65 0.19,-0.96 0.13,-0.29 0.3,-0.54 0.53,-0.75 0.2,-0.21 0.46,-0.38 0.75,-0.5 0.29,-0.11 0.59,-0.16 0.93,-0.16 0.33,0 0.64,0.07 0.93,0.18 0.27,0.11 0.51,0.29 0.72,0.5 0.2,0.2 0.36,0.46 0.48,0.75 0.11,0.3 0.17,0.61 0.17,0.94l-1.53 0z"></path>
  <path id="_5" class="fil2" d="M76.78 16.76l-3.23 0 0 1.11c0,0.25 0.08,0.45 0.22,0.59 0.14,0.14 0.34,0.21 0.58,0.21 0.3,0 0.51,-0.1 0.62,-0.27 0.1,-0.18 0.16,-0.37 0.18,-0.55l1.63 0c0,0.72 -0.22,1.3 -0.66,1.73 -0.2,0.22 -0.46,0.4 -0.76,0.53 -0.31,0.13 -0.65,0.19 -1.01,0.19 -0.52,0 -0.95,-0.11 -1.3,-0.32 -0.37,-0.21 -0.64,-0.5 -0.83,-0.85 -0.11,-0.21 -0.19,-0.46 -0.24,-0.73 -0.05,-0.28 -0.07,-0.58 -0.07,-0.92l0 -2.67c0,-0.34 0.02,-0.64 0.07,-0.91 0.05,-0.27 0.13,-0.53 0.24,-0.74 0.19,-0.35 0.46,-0.64 0.83,-0.85 0.35,-0.2 0.78,-0.32 1.3,-0.32 0.36,0 0.72,0.07 1.02,0.2 0.31,0.12 0.56,0.3 0.77,0.52 0.43,0.48 0.64,1.09 0.64,1.81l0 2.24zm-3.23 -1.28l1.6 0 0 -0.92c0,-0.31 -0.07,-0.55 -0.21,-0.71 -0.15,-0.14 -0.35,-0.22 -0.59,-0.22 -0.24,0 -0.44,0.08 -0.58,0.22 -0.14,0.16 -0.22,0.4 -0.22,0.71l0 0.92zm0.52 -5.47c0.13,0 0.26,0 0.37,-0.02 0.11,-0.01 0.21,-0.03 0.29,-0.06 0.26,-0.1 0.39,-0.26 0.39,-0.46 0,-0.2 -0.1,-0.34 -0.31,-0.42 -0.08,-0.05 -0.19,-0.08 -0.32,-0.1 -0.14,-0.01 -0.26,-0.01 -0.35,-0.01 -0.15,0 -0.27,0.01 -0.4,0.03 -0.15,0.03 -0.26,0.06 -0.37,0.08 -0.11,0.03 -0.21,0.06 -0.27,0.08 -0.08,0.03 -0.11,0.05 -0.11,0.05l-0.15 -0.72c0.18,-0.05 0.34,-0.08 0.51,-0.13 0.15,-0.03 0.31,-0.07 0.48,-0.1 0.18,-0.01 0.34,-0.03 0.52,-0.03 0.24,0 0.48,0.02 0.73,0.06 0.24,0.05 0.47,0.12 0.64,0.2 0.21,0.09 0.37,0.22 0.5,0.38 0.11,0.16 0.18,0.35 0.18,0.56 0,0.19 -0.05,0.37 -0.13,0.51 -0.1,0.15 -0.23,0.28 -0.37,0.37 -0.3,0.19 -0.69,0.29 -1.15,0.29l0 0.45 -0.68 0 0 -1.01z"></path>
  <path id="_6" class="fil2" d="M80.86 8.81l1.63 0 0 9.11c0,0.3 0.07,0.51 0.18,0.62 0.11,0.11 0.32,0.19 0.62,0.22l0 1.54c-0.36,0 -0.7,-0.03 -1,-0.08 -0.31,-0.06 -0.56,-0.17 -0.77,-0.35 -0.21,-0.16 -0.37,-0.39 -0.48,-0.69 -0.12,-0.29 -0.18,-0.67 -0.18,-1.15l0 -9.22z"></path>
  <path id="_7" class="fil2" d="M83.93 20.21l0 -8.12 1.64 0 0 8.12 -1.64 0zm0 -9.77l0 -1.63 1.64 0 0 1.63 -1.64 0z"></path>
  <path id="_8" class="fil2" d="M86.91 20.21l0 -8.12 1.63 0 0 0.78 0.04 0c0.17,-0.25 0.38,-0.46 0.62,-0.64 0.24,-0.16 0.54,-0.24 0.91,-0.24 0.21,0 0.4,0.04 0.61,0.1 0.21,0.08 0.38,0.19 0.54,0.35 0.16,0.16 0.29,0.37 0.39,0.61 0.09,0.26 0.14,0.56 0.14,0.93l0 6.23 -1.63 0 0 -5.62c0,-0.31 -0.06,-0.53 -0.21,-0.71 -0.14,-0.17 -0.33,-0.25 -0.59,-0.25 -0.3,0 -0.53,0.09 -0.64,0.28 -0.11,0.2 -0.18,0.47 -0.18,0.84l0 5.46 -1.63 0z"></path>
  <polygon id="_9" class="fil2" points="93.14,20.21 93.14,8.81 94.77,8.81 94.77,15.63 94.8,15.63 96.77,12.09 98.4,12.09 96.47,15.39 98.8,20.21 97.03,20.21 95.55,16.7 94.77,17.93 94.77,20.21 "></polygon>
 </g>
</svg>
