<svg id="Layer_1" enable-background="new 0 0 512 512" height="512" viewBox="0 0 512 512" width="512" xmlns="http://www.w3.org/2000/svg"><g id="XMLID_1286_"><circle id="XMLID_1299_" cx="256" cy="256" fill="#fff" r="246"/><path id="XMLID_1298_" d="m387.274 234.762c14.966-5.848 22.061-23.152 15.17-37.949-5.803-12.46-20.138-18.916-33.308-14.982-8.251 2.465-14.411 8.276-17.604 15.41-3.307 1.292-7.092.206-9.152-2.686-14.833-20.813-36.98-35.992-62.592-41.869-3.597-.825-6.174-3.984-6.261-7.673 5.265-5.709 8.184-13.595 7.249-22.11-1.496-13.622-12.959-24.295-26.652-24.844-16.313-.654-29.545 12.568-29.168 28.634.181 7.691 3.448 14.583 8.588 19.525.082 3.499-2.217 6.62-5.593 7.543-19.318 5.283-36.392 15.875-49.599 30.082-2.488 2.676-6.471 3.325-9.678 1.572-2.292-7.439-7.662-13.939-15.514-17.404-12.551-5.539-27.55-.953-34.879 10.644-8.722 13.8-3.887 31.87 10.215 39.576 6.722 3.673 14.288 4.299 21.114 2.349 3.114 1.702 4.675 5.3 3.783 8.734-2.416 9.302-3.6 19.089-3.363 29.173.086 3.666.36 7.283.809 10.844.448 3.55-1.565 6.95-4.898 8.252-6.808-2.917-14.768-3.155-22.167.047-13.084 5.663-19.891 20.626-15.532 34.2 4.985 15.521 21.915 23.41 36.868 17.567 7.083-2.768 12.397-8.104 15.306-14.524 3.366-1.315 7.215-.209 9.318 2.73 14.941 20.883 37.255 36.069 63.04 41.838 3.418.765 5.867 3.772 5.949 7.274-5.391 5.693-8.409 13.636-7.514 22.223 1.427 13.689 12.923 24.455 26.675 25.003 16.31.65 29.538-12.571 29.161-28.634-.177-7.559-3.34-14.343-8.328-19.265-.087-3.686 2.335-6.964 5.886-7.956 19.185-5.359 36.133-15.962 49.24-30.139 2.417-2.615 6.303-3.246 9.428-1.538 2.254 7.489 7.622 14.045 15.494 17.546 12.562 5.588 27.61 1.012 34.955-10.61 8.722-13.8 3.887-31.87-10.215-39.576-6.664-3.642-14.156-4.285-20.937-2.397-3.196-1.747-4.794-5.437-3.888-8.965 2.367-9.219 3.525-18.911 3.291-28.896-.085-3.624-.353-7.2-.793-10.722-.448-3.587 1.632-7.01 4.999-8.326 6.49 2.748 14.014 3.067 21.097.299z" fill="#89df8f"/><path id="XMLID_1293_" d="m256 502c135.862 0 246-110.138 246-246s-110.138-246-246-246-246 110.138-246 246 110.138 246 246 246zm198-246c0 109.178-88.822 198-198 198-45.959 0-88.308-15.742-121.946-42.113l277.832-277.832c26.372 33.637 42.114 75.987 42.114 121.945zm-198-198c45.959 0 88.308 15.742 121.946 42.113l-277.833 277.833c-26.371-33.638-42.113-75.988-42.113-121.946 0-109.178 88.822-198 198-198z" fill="#ff7d97"/><g id="XMLID_965_"><path id="XMLID_968_" d="m124.073 412.489c.172 2.856 1.56 5.502 3.812 7.268 36.919 28.944 81.22 44.243 128.115 44.243 114.691 0 208-93.309 208-208 0-46.895-15.299-91.196-44.244-128.116-1.766-2.252-4.411-3.64-7.268-3.812-2.854-.173-5.649.887-7.673 2.911l-277.832 277.832c-2.023 2.024-3.083 4.817-2.91 7.674zm240.201-216.68c1.965-1.954 4.636-3.474 7.725-4.396 8.456-2.526 17.648 1.61 21.379 9.623 2.135 4.585 2.283 9.677.414 14.339-1.871 4.667-5.478 8.245-10.159 10.074-4.393 1.716-9.209 1.648-13.562-.193-2.402-1.017-5.107-1.054-7.537-.104-7.657 2.993-12.296 10.756-11.281 18.878.401 3.214.643 6.484.719 9.719.208 8.859-.794 17.666-2.979 26.172-2.047 7.967 1.563 16.285 8.778 20.228 2.287 1.25 4.97 1.557 7.479.858 4.543-1.268 9.324-.72 13.458 1.539 4.41 2.41 7.533 6.417 8.794 11.286 1.26 4.863.465 9.896-2.237 14.172-4.724 7.474-14.37 10.404-22.438 6.816-4.902-2.181-8.447-6.191-9.983-11.292-.757-2.516-2.475-4.632-4.78-5.893-7.16-3.913-16.029-2.463-21.566 3.525-12.101 13.089-27.52 22.528-44.587 27.296-7.963 2.224-13.388 9.553-13.193 17.823.061 2.593 1.127 5.06 2.973 6.882 3.343 3.299 5.245 7.696 5.354 12.382.118 5.023-1.791 9.731-5.375 13.258-3.581 3.522-8.344 5.355-13.39 5.149-8.848-.353-16.211-7.252-17.127-16.047-.558-5.352 1.157-10.434 4.829-14.312 1.814-1.916 2.798-4.472 2.736-7.11-.19-8.12-5.85-15.028-13.762-16.798-6.348-1.42-12.503-3.482-18.406-6.149l147.72-147.721c.002-.002.003-.003.004-.004zm-162.654 162.654c7.622 4.055 15.641 7.244 23.967 9.501-3.581 6.658-5.129 14.309-4.327 22.011 1.94 18.614 17.513 33.213 36.223 33.959.528.021 1.054.031 1.58.031 10.042 0 19.449-3.839 26.633-10.908 7.455-7.334 11.589-17.534 11.344-27.984-.156-6.674-2.032-13.07-5.399-18.663 17.344-5.59 33.128-15.214 46.105-28.11 3.986 6.453 9.86 11.637 16.954 14.792 17.073 7.593 37.482 1.402 47.472-14.405 5.686-8.997 7.353-19.606 4.692-29.874-2.623-10.124-9.39-18.806-18.564-23.82-5.863-3.204-12.344-4.773-18.862-4.657 1.894-8.856 2.744-17.937 2.53-27.059-.054-2.321-.18-4.657-.374-6.985 6.464.953 13.092.216 19.32-2.217 9.737-3.805 17.553-11.554 21.443-21.261 3.945-9.844 3.644-20.578-.848-30.224-4.71-10.114-13.538-17.303-23.697-20.321l22.931-22.931c21.797 31.436 33.257 68.077 33.257 106.662 0 103.664-84.336 188-188 188-38.585 0-75.226-11.46-106.66-33.257z"/><path id="XMLID_970_" d="m437.019 74.98c-48.352-48.352-112.639-74.98-181.019-74.98-51.345 0-100.879 15.146-143.247 43.8-4.575 3.094-5.775 9.311-2.681 13.885 3.093 4.575 9.31 5.776 13.885 2.681 39.047-26.408 84.707-40.366 132.043-40.366 130.131 0 236 105.869 236 236s-105.869 236-236 236-236-105.869-236-236c0-48.858 14.795-95.731 42.787-135.553 3.176-4.518 2.088-10.755-2.431-13.932-4.517-3.176-10.755-2.088-13.932 2.431-30.371 43.207-46.424 94.057-46.424 147.054 0 68.38 26.628 132.667 74.981 181.02 48.352 48.352 112.639 74.98 181.019 74.98s132.667-26.628 181.02-74.981c48.352-48.352 74.98-112.639 74.98-181.019s-26.628-132.667-74.981-181.02z"/><path id="XMLID_984_" d="m384.115 92.244c-36.919-28.945-81.22-44.244-128.115-44.244-114.691 0-208 93.309-208 208 0 46.895 15.299 91.196 44.244 128.116 1.766 2.252 4.411 3.64 7.268 3.812.201.012.402.018.603.018 2.643 0 5.189-1.048 7.07-2.929l277.832-277.832c2.023-2.023 3.083-4.817 2.911-7.673s-1.561-5.503-3.813-7.268zm-242.646 227.839c-4.674 1.828-9.748 1.646-14.284-.511-4.531-2.154-7.877-5.989-9.422-10.799-2.79-8.687 1.595-18.335 9.982-21.965 4.598-1.99 9.662-2.001 14.257-.032 2.413 1.034 5.134 1.077 7.579.122 7.604-2.972 12.202-10.71 11.179-18.816-.41-3.251-.656-6.558-.733-9.829-.21-8.946.814-17.837 3.045-26.425 2.047-7.882-1.517-16.116-8.667-20.023-2.304-1.26-5.014-1.562-7.542-.841-4.58 1.31-9.4.772-13.573-1.509-4.41-2.41-7.534-6.418-8.795-11.287-1.26-4.862-.465-9.895 2.238-14.171 4.71-7.452 14.336-10.391 22.389-6.838 4.884 2.156 8.434 6.133 9.995 11.2.767 2.49 2.475 4.582 4.761 5.831 7.228 3.95 16.191 2.494 21.798-3.539 12.2-13.125 27.731-22.546 44.913-27.244 7.816-2.138 13.143-9.303 12.952-17.423-.062-2.638-1.164-5.146-3.066-6.974-3.448-3.315-5.409-7.772-5.521-12.551-.118-5.024 1.792-9.733 5.377-13.26 3.582-3.522 8.342-5.345 13.392-5.147 8.796.353 16.153 7.208 17.112 15.944.582 5.293-1.073 10.35-4.659 14.238-1.758 1.906-2.708 4.421-2.646 7.014.193 8.269 5.959 15.335 14.021 17.185 6.168 1.416 12.153 3.44 17.898 6.035l-147.959 147.959c-1.499 1.438-3.58 2.702-6.021 3.656zm168.909-166.545c-7.622-4.055-15.644-7.246-23.972-9.503 3.617-6.727 5.162-14.465 4.31-22.224-2.031-18.492-17.59-32.999-36.191-33.745-10.633-.421-20.656 3.435-28.218 10.873-7.457 7.334-11.593 17.536-11.347 27.988.156 6.688 2.028 13.079 5.392 18.665-17.338 5.589-33.119 15.209-46.1 28.109-4.006-6.487-9.92-11.691-17.054-14.84-17.044-7.521-37.41-1.309-47.37 14.45-5.686 8.997-7.353 19.605-4.692 29.873 2.624 10.125 9.39 18.807 18.565 23.821 5.869 3.207 12.343 4.775 18.862 4.66-1.894 8.856-2.744 17.935-2.53 27.056.054 2.317.179 4.649.373 6.974-6.911-1.028-13.987-.107-20.604 2.757-17.721 7.668-26.98 28.065-21.081 46.435 3.25 10.12 10.31 18.198 19.878 22.747 1.805.858 3.669 1.558 5.568 2.115l-22.91 22.91c-21.797-31.433-33.257-68.074-33.257-106.659 0-103.664 84.336-188 188-188 38.585 0 75.226 11.46 106.66 33.257z"/><path id="XMLID_996_" d="m83.73 90.4c2.63 0 5.21-1.07 7.07-2.93 1.86-1.87 2.93-4.44 2.93-7.07 0-2.64-1.07-5.21-2.93-7.08-1.86-1.86-4.44-2.92-7.07-2.92-2.64 0-5.21 1.06-7.07 2.92s-2.93 4.44-2.93 7.08c0 2.63 1.07 5.21 2.93 7.07s4.43 2.93 7.07 2.93z"/><path id="XMLID_997_" d="m307 307.67c2.63 0 5.21-1.07 7.07-2.93s2.93-4.44 2.93-7.07c0-2.64-1.07-5.21-2.93-7.08-1.86-1.86-4.44-2.92-7.07-2.92s-5.21 1.06-7.07 2.92c-1.86 1.87-2.93 4.44-2.93 7.08 0 2.63 1.07 5.21 2.93 7.07s4.44 2.93 7.07 2.93z"/><path id="XMLID_999_" d="m208.33 207.97c-2.63 0-5.21 1.07-7.07 2.93s-2.93 4.44-2.93 7.07 1.07 5.21 2.93 7.07 4.44 2.93 7.07 2.93c2.64 0 5.21-1.07 7.08-2.93 1.86-1.86 2.92-4.44 2.92-7.07s-1.06-5.21-2.92-7.07c-1.87-1.86-4.44-2.93-7.08-2.93z"/></g></g></svg>